<?xml version="1.0" encoding="UTF-8"?>
<svg width="98px" height="98px" viewBox="0 0 98 98" version="1.1" xmlns="http://www.w3.org/2000/svg" xmlns:xlink="http://www.w3.org/1999/xlink">
    <title>back</title>
    <g id="back" stroke="none" stroke-width="1" fill="none" fill-rule="evenodd">
        <path d="M15.75,32 L15.75,38.8 L29.25,38.8 L29.25,45.6 L36,45.6 L36,52.4 L29.25,52.4 L29.25,59.2 L15.75,59.2 L15.75,66 L9,66 L9,32 L15.75,32 Z M49.5,32 L49.5,38.8 L56.25,38.8 L56.25,45.6 L63,45.6 L63,52.4 L56.25,52.4 L56.25,59.2 L49.5,59.2 L49.5,66 L42.75,66 L42.75,32 L49.5,32 Z M69.75,32 L76.5,32 L76.5,38.8 L83.25,38.8 L83.25,45.6 L90,45.6 L90,52.4 L83.25,52.4 L83.25,59.2 L76.5,59.2 L76.5,66 L69.75,66 L69.75,32 Z" id="Shape-Copy" fill="#0A84FE" transform="translate(49.500000, 49.000000) rotate(-180.000000) translate(-49.500000, -49.000000) "></path>
    </g>
</svg>