<?xml version="1.0" encoding="UTF-8"?>
<svg width="100px" height="100px" viewBox="0 0 100 100" version="1.1" xmlns="http://www.w3.org/2000/svg" xmlns:xlink="http://www.w3.org/1999/xlink">
    <title>favicon</title>
    <g id="favicon" stroke="none" stroke-width="1" fill="none" fill-rule="evenodd">
        <path d="M10.3165055,109 C9.45343685,109 8.75378147,108.300345 8.75378147,107.437276 L8.75378147,106.916368 L8.65094,106.916368 C4.52445418,29.3804076 21.3666876,66.371203 21.3666876,8.85543608 L21.752,8.855 L21.752,6.771 L21.3666876,6.77180406 L21.3666876,1.56272401 C21.3666876,0.699655373 22.0663429,0 22.9294116,0 L22.9294116,0 L29.0705884,0 L29.2128282,0.00638634226 C30.0092371,0.0782438478 30.6333124,0.747603631 30.6333124,1.56272401 L30.6333124,1.56272401 L30.6333124,6.77180406 L30.2473124,6.771 L30.247,8.855 L30.6333124,8.85543608 C30.6333124,65.7960453 47.1403854,30.1107729 43.4666018,104.624438 L43.34906,106.916368 L43.2462185,106.916368 L43.2462185,107.437276 C43.2462185,108.300345 42.5465632,109 41.6834945,109 L41.6834945,109 L10.3165055,109 Z" id="Combined-Shape" fill="#212121"></path>
        <path d="M58.3165055,109 C57.4534368,109 56.7537815,108.300345 56.7537815,107.437276 L56.7537815,106.916368 L56.65094,106.916368 C52.5244542,29.3804076 69.3666876,66.371203 69.3666876,8.85543608 L69.752,8.855 L69.752,6.771 L69.3666876,6.77180406 L69.3666876,1.56272401 C69.3666876,0.699655373 70.0663429,0 70.9294116,0 L70.9294116,0 L77.0705884,0 L77.2128282,0.00638634226 C78.0092371,0.0782438478 78.6333124,0.747603631 78.6333124,1.56272401 L78.6333124,1.56272401 L78.6333124,6.77180406 L78.2473124,6.771 L78.247,8.855 L78.6333124,8.85543608 C78.6333124,65.7960453 95.1403854,30.1107729 91.4666018,104.624438 L91.34906,106.916368 L91.2462185,106.916368 L91.2462185,107.437276 C91.2462185,108.300345 90.5465632,109 89.6834945,109 L89.6834945,109 L58.3165055,109 Z" id="Combined-Shape-Copy" fill="#212121"></path>
    </g>
</svg>